<?xml version="1.0" encoding="UTF-8" standalone="no"?>
<!DOCTYPE svg PUBLIC "-//W3C//DTD SVG 1.1//EN" "http://www.w3.org/Graphics/SVG/1.1/DTD/svg11.dtd">
<svg version="1.1" xmlns="http://www.w3.org/2000/svg" xmlns:xlink="http://www.w3.org/1999/xlink" preserveAspectRatio="xMidYMid meet" viewBox="0 0 640 640" width="640" height="640"><defs><path d="M0 4.9L1.4 3.4L7.7 9.7L14 3.4L15.4 4.9L7.7 12.6L0 4.9Z" id="hGthhU9"></path><path d="M24.4 3C22.78 1.38 21.88 0.48 21.7 0.3C21.5 0.1 21.3 0 21 0C20.6 0 17.4 0 17 0C16.4 0 16 0.4 16 1C16 2.4 16 13.6 16 15C16 15.6 16.4 16 17 16C18.4 16 29.6 16 31 16C31.6 16 32 15.6 32 15C32 13.9 32 5.1 32 4C32 3.4 31.6 3 31 3C30.12 3 27.92 3 24.4 3Z" id="aG92PEAxs"></path><path d="M47 7C45.9 7 37.1 7 36 7C35.6 7 35.2 7.2 35.1 7.6C34.8 8.3 32.4 13.9 32.1 14.6C31.9 15.2 32.1 16 33 16C34.1 16 42.9 16 44 16C44.4 16 44.8 15.8 44.9 15.4C45.2 14.7 47.6 9.1 47.9 8.4C48.1 8.1 48 7.7 47.8 7.4C47.6 7.2 47.3 7 47 7Z" id="b10kRRXfvC"></path><path d="M36 5C36.6 5 39.6 5 45 5C45 3.8 45 3.13 45 3C45 2.4 44.6 2 44 2C43.63 2 41.76 2 38.4 2C37.38 0.98 36.81 0.41 36.7 0.3C36.5 0.1 36.3 0 36 0C35.7 0 33.3 0 33 0C32.4 0 32 0.4 32 1C32 1.58 32 4.48 32 9.7L33.2 6.8C34.27 5.6 35.2 5 36 5Z" id="c2BeadikcS"></path><path d="M63.28 0.03L63.41 0.07L63.53 0.13L63.63 0.19L63.73 0.28L63.81 0.37L63.87 0.47L63.93 0.59L63.97 0.72L63.99 0.85L64 1L64 15L63.99 15.15L63.97 15.28L63.93 15.41L63.87 15.53L63.81 15.63L63.73 15.73L63.63 15.81L63.53 15.87L63.41 15.93L63.28 15.97L63.15 15.99L63 16L49 16L48.85 15.99L48.72 15.97L48.59 15.93L48.47 15.87L48.37 15.81L48.28 15.73L48.19 15.63L48.13 15.53L48.07 15.41L48.03 15.28L48.01 15.15L48 15L48 1L48.01 0.85L48.03 0.72L48.07 0.59L48.13 0.47L48.19 0.37L48.28 0.28L48.37 0.19L48.47 0.13L48.59 0.07L48.72 0.03L48.85 0.01L49 0L63 0L63.15 0.01L63.28 0.03ZM53 8L51 12L61 12L58 6L55 10L53 8ZM53.28 4.28L53.07 4.59L53 5L53.07 5.41L53.28 5.72L53.59 5.93L54 6L54.41 5.93L54.72 5.72L54.93 5.41L55 5L54.93 4.59L54.72 4.28L54.41 4.07L54 4L53.59 4.07L53.28 4.28Z" id="bjU1vC2v6"></path></defs><g><g><g><use xlink:href="#hGthhU9" opacity="1" fill="#6c7079" fill-opacity="1"></use><g><use xlink:href="#hGthhU9" opacity="1" fill-opacity="0" stroke="#000000" stroke-width="1" stroke-opacity="0"></use></g></g><g><use xlink:href="#aG92PEAxs" opacity="1" fill="#6c7079" fill-opacity="1"></use><g><use xlink:href="#aG92PEAxs" opacity="1" fill-opacity="0" stroke="#000000" stroke-width="1" stroke-opacity="0"></use></g></g><g><use xlink:href="#b10kRRXfvC" opacity="1" fill="#6c7079" fill-opacity="1"></use><g><use xlink:href="#b10kRRXfvC" opacity="1" fill-opacity="0" stroke="#000000" stroke-width="1" stroke-opacity="0"></use></g></g><g><use xlink:href="#c2BeadikcS" opacity="1" fill="#6c7079" fill-opacity="1"></use><g><use xlink:href="#c2BeadikcS" opacity="1" fill-opacity="0" stroke="#000000" stroke-width="1" stroke-opacity="0"></use></g></g><g><use xlink:href="#bjU1vC2v6" opacity="1" fill="#6c7079" fill-opacity="1"></use><g><use xlink:href="#bjU1vC2v6" opacity="1" fill-opacity="0" stroke="#000000" stroke-width="1" stroke-opacity="0"></use></g></g></g></g></svg>